<svg width="96" height="96" viewBox="0 0 96 96" fill="none" xmlns="http://www.w3.org/2000/svg">
<g filter="url(#filter0_d_748_5739)">
<path d="M37.5826 8.97101C37.2212 8.3686 36.5701 8 35.8676 8H16.5324C14.9778 8 14.0176 9.69594 14.8174 11.029L36.4174 47.029C36.7788 47.6314 37.4298 48 38.1324 48H57.4676C59.0222 48 59.9824 46.3041 59.1826 44.971L37.5826 8.97101Z" fill="#0355B6"/>
<path fill-rule="evenodd" clip-rule="evenodd" d="M35.8665 6H16.5312C13.4221 6 11.5016 9.39189 13.1013 12.058L34.7013 48.058C35.4242 49.2628 36.7262 50 38.1312 50H57.4665C60.5757 50 62.4961 46.6081 60.8965 43.942L39.2965 7.94202C38.5736 6.7372 37.2715 6 35.8665 6ZM35.8665 8C36.569 8 37.22 8.3686 37.5815 8.97101L59.1815 44.971C59.9813 46.3041 59.0211 48 57.4665 48H38.1312C37.4287 48 36.7777 47.6314 36.4163 47.029L14.8163 11.029C14.0164 9.69594 14.9767 8 16.5312 8H35.8665Z" fill="#023E84"/>
<path d="M58.4174 8.97101C58.7788 8.3686 59.4299 8 60.1324 8H79.4676C81.0222 8 81.9824 9.69594 81.1826 11.029L59.5826 47.029C59.2212 47.6314 58.5702 48 57.8676 48H38.5324C36.9778 48 36.0176 46.3041 36.8174 44.971L58.4174 8.97101Z" fill="#086FE9"/>
<path fill-rule="evenodd" clip-rule="evenodd" d="M60.1316 6H79.4668C82.576 6 84.4964 9.39189 82.8968 12.058L61.2968 48.058C60.5739 49.2628 59.2719 50 57.8668 50H38.5316C35.4224 50 33.5019 46.6081 35.1016 43.942L56.7016 7.94202C57.4245 6.7372 58.7265 6 60.1316 6ZM60.1316 8C59.429 8 58.778 8.3686 58.4166 8.97101L36.8166 44.971C36.0168 46.3041 36.977 48 38.5316 48H57.8668C58.5693 48 59.2203 47.6314 59.5818 47.029L81.1818 11.029C81.9816 9.69594 81.0214 8 79.4668 8H60.1316Z" fill="#023E84"/>
<path fill-rule="evenodd" clip-rule="evenodd" d="M60.5023 9.13538C60.9799 9.4127 61.1423 10.0247 60.865 10.5023L51.865 26.0023C51.5876 26.4799 50.9756 26.6423 50.498 26.365C50.0204 26.0876 49.8581 25.4756 50.1354 24.998L59.1354 9.49803C59.4127 9.02042 60.0247 8.85805 60.5023 9.13538Z" fill="#3D96FF"/>
<path fill-rule="evenodd" clip-rule="evenodd" d="M16.4977 9.13538C16.0201 9.4127 15.8577 10.0247 16.135 10.5023L25.135 26.0023C25.4124 26.4799 26.0244 26.6423 26.502 26.365C26.9796 26.0876 27.1419 25.4756 26.8646 24.998L17.8646 9.49803C17.5873 9.02042 16.9753 8.85805 16.4977 9.13538Z" fill="#1871DA"/>
<path d="M35.5 11.2812C35.5 11.9889 34.9404 12.5625 34.25 12.5625C33.5596 12.5625 33 11.9889 33 11.2812C33 10.5736 33.5596 10 34.25 10C34.9404 10 35.5 10.5736 35.5 11.2812Z" fill="#034592"/>
<path d="M31.1098 11.5938C31.1098 12.474 30.4136 13.1875 29.5549 13.1875C28.6961 13.1875 28 12.474 28 11.5938C28 10.7135 28.6961 10 29.5549 10C30.4136 10 31.1098 10.7135 31.1098 11.5938Z" fill="#034592"/>
<path d="M35.0004 16.1562C35.0004 17.0365 34.3042 17.75 33.4455 17.75C32.5868 17.75 31.8906 17.0365 31.8906 16.1562C31.8906 15.276 32.5868 14.5625 33.4455 14.5625C34.3042 14.5625 35.0004 15.276 35.0004 16.1562Z" fill="#034592"/>
<path d="M38.5549 13.9844C38.5549 14.4245 38.2068 14.7812 37.7774 14.7812C37.3481 14.7812 37 14.4245 37 13.9844C37 13.5443 37.3481 13.1875 37.7774 13.1875C38.2068 13.1875 38.5549 13.5443 38.5549 13.9844Z" fill="#034592"/>
<path d="M30.3322 15.3594C30.3322 15.7995 29.9842 16.1562 29.5548 16.1562C29.1254 16.1562 28.7773 15.7995 28.7773 15.3594C28.7773 14.9193 29.1254 14.5625 29.5548 14.5625C29.9842 14.5625 30.3322 14.9193 30.3322 15.3594Z" fill="#034592"/>
<path d="M26.0002 10.4844C26.0002 10.9245 25.6521 11.2812 25.2228 11.2812C24.7934 11.2812 24.4453 10.9245 24.4453 10.4844C24.4453 10.0443 24.7934 9.6875 25.2228 9.6875C25.6521 9.6875 26.0002 10.0443 26.0002 10.4844Z" fill="#034592"/>
<path d="M37.7775 19.5469C37.7775 19.987 37.4295 20.3438 37.0001 20.3438C36.5707 20.3438 36.2227 19.987 36.2227 19.5469C36.2227 19.1068 36.5707 18.75 37.0001 18.75C37.4295 18.75 37.7775 19.1068 37.7775 19.5469Z" fill="#034592"/>
<path d="M33.7775 20.3438C33.7775 20.7839 33.4295 21.1406 33.0001 21.1406C32.5707 21.1406 32.2227 20.7839 32.2227 20.3438C32.2227 19.9036 32.5707 19.5469 33.0001 19.5469C33.4295 19.5469 33.7775 19.9036 33.7775 20.3438Z" fill="#034592"/>
<path d="M41.5305 17.4531C41.5305 18.1694 40.964 18.75 40.2652 18.75C39.5665 18.75 39 18.1694 39 17.4531C39 16.7369 39.5665 16.1562 40.2652 16.1562C40.964 16.1562 41.5305 16.7369 41.5305 17.4531Z" fill="#034592"/>
<path d="M43.1799 21.1406C43.1799 21.5807 42.8318 21.9375 42.4024 21.9375C41.9731 21.9375 41.625 21.5807 41.625 21.1406C41.625 20.7005 41.9731 20.3438 42.4024 20.3438C42.8318 20.3438 43.1799 20.7005 43.1799 21.1406Z" fill="#034592"/>
<path d="M75 61C75 75.9117 62.9117 88 48 88C33.0883 88 21 75.9117 21 61C21 46.0883 33.0883 34 48 34C62.9117 34 75 46.0883 75 61Z" fill="#DCA16A"/>
<path fill-rule="evenodd" clip-rule="evenodd" d="M77 61C77 77.0163 64.0163 90 48 90C31.9837 90 19 77.0163 19 61C19 44.9837 31.9837 32 48 32C64.0163 32 77 44.9837 77 61ZM48 88C62.9117 88 75 75.9117 75 61C75 46.0883 62.9117 34 48 34C33.0883 34 21 46.0883 21 61C21 75.9117 33.0883 88 48 88Z" fill="#C38144"/>
<path fill-rule="evenodd" clip-rule="evenodd" d="M23 62C22.4477 62 22 61.5523 22 61C22 46.6406 33.6406 35 48 35C48.5523 35 49 35.4477 49 36C49 36.5523 48.5523 37 48 37C34.7452 37 24 47.7452 24 61C24 61.5523 23.5523 62 23 62Z" fill="#F0B57F"/>
<path fill-rule="evenodd" clip-rule="evenodd" d="M73 60C73.5523 60 74 60.4477 74 61C74 75.3594 62.3594 87 48 87C47.4477 87 47 86.5523 47 86C47 85.4477 47.4477 85 48 85C61.2548 85 72 74.2548 72 61C72 60.4477 72.4477 60 73 60Z" fill="#CF945D"/>
<path d="M68 61C68 72.0457 59.0457 81 48 81C36.9543 81 28 72.0457 28 61C28 49.9543 36.9543 41 48 41C59.0457 41 68 49.9543 68 61Z" fill="#F7BA82"/>
<path fill-rule="evenodd" clip-rule="evenodd" d="M70 61C70 73.1503 60.1503 83 48 83C35.8497 83 26 73.1503 26 61C26 48.8497 35.8497 39 48 39C60.1503 39 70 48.8497 70 61ZM48 81C59.0457 81 68 72.0457 68 61C68 49.9543 59.0457 41 48 41C36.9543 41 28 49.9543 28 61C28 72.0457 36.9543 81 48 81Z" fill="#C38144"/>
<path fill-rule="evenodd" clip-rule="evenodd" d="M48 78C57.3888 78 65 70.3888 65 61C65 60.4477 65.4477 60 66 60C66.5523 60 67 60.4477 67 61C67 71.4934 58.4934 80 48 80C47.4477 80 47 79.5523 47 79C47 78.4477 47.4477 78 48 78Z" fill="#E6A66C"/>
<path fill-rule="evenodd" clip-rule="evenodd" d="M48 44C38.6112 44 31 51.6112 31 61C31 61.5523 30.5523 62 30 62C29.4477 62 29 61.5523 29 61C29 50.5066 37.5066 42 48 42C48.5523 42 49 42.4477 49 43C49 43.5523 48.5523 44 48 44Z" fill="#FFD5AE"/>
<path d="M45.6289 59.0039H47.4336C48.0117 59.0039 48.4883 58.9062 48.8633 58.7109C49.2383 58.5078 49.5156 58.2266 49.6953 57.8672C49.8828 57.5 49.9766 57.0742 49.9766 56.5898C49.9766 56.1523 49.8906 55.7656 49.7188 55.4297C49.5547 55.0859 49.3008 54.8203 48.957 54.6328C48.6133 54.4375 48.1797 54.3398 47.6562 54.3398C47.2422 54.3398 46.8594 54.4219 46.5078 54.5859C46.1562 54.75 45.875 54.9805 45.6641 55.2773C45.4531 55.5742 45.3477 55.9336 45.3477 56.3555H41.9609C41.9609 55.418 42.2109 54.6016 42.7109 53.9062C43.2188 53.2109 43.8984 52.668 44.75 52.2773C45.6016 51.8867 46.5391 51.6914 47.5625 51.6914C48.7188 51.6914 49.7305 51.8789 50.5977 52.2539C51.4648 52.6211 52.1406 53.1641 52.625 53.8828C53.1094 54.6016 53.3516 55.4922 53.3516 56.5547C53.3516 57.0938 53.2266 57.6172 52.9766 58.125C52.7266 58.625 52.3672 59.0781 51.8984 59.4844C51.4375 59.8828 50.875 60.2031 50.2109 60.4453C49.5469 60.6797 48.8008 60.7969 47.9727 60.7969H45.6289V59.0039ZM45.6289 61.5703V59.8242H47.9727C48.9023 59.8242 49.7188 59.9297 50.4219 60.1406C51.125 60.3516 51.7148 60.6562 52.1914 61.0547C52.668 61.4453 53.0273 61.9102 53.2695 62.4492C53.5117 62.9805 53.6328 63.5703 53.6328 64.2188C53.6328 65.0156 53.4805 65.7266 53.1758 66.3516C52.8711 66.9688 52.4414 67.4922 51.8867 67.9219C51.3398 68.3516 50.6992 68.6797 49.9648 68.9062C49.2305 69.125 48.4297 69.2344 47.5625 69.2344C46.8438 69.2344 46.1367 69.1367 45.4414 68.9414C44.7539 68.7383 44.1289 68.4375 43.5664 68.0391C43.0117 67.6328 42.5664 67.125 42.2305 66.5156C41.9023 65.8984 41.7383 65.168 41.7383 64.3242H45.125C45.125 64.7617 45.2344 65.1523 45.4531 65.4961C45.6719 65.8398 45.9727 66.1094 46.3555 66.3047C46.7461 66.5 47.1797 66.5977 47.6562 66.5977C48.1953 66.5977 48.6562 66.5 49.0391 66.3047C49.4297 66.1016 49.7266 65.8203 49.9297 65.4609C50.1406 65.0938 50.2461 64.668 50.2461 64.1836C50.2461 63.5586 50.1328 63.0586 49.9062 62.6836C49.6797 62.3008 49.3555 62.0195 48.9336 61.8398C48.5117 61.6602 48.0117 61.5703 47.4336 61.5703H45.6289Z" fill="#FFD5AE"/>
<path d="M45.6289 59.0039V57.0039C44.5243 57.0039 43.6289 57.8993 43.6289 59.0039H45.6289ZM48.8633 58.7109L49.7872 60.4848C49.7968 60.4798 49.8063 60.4747 49.8158 60.4695L48.8633 58.7109ZM49.6953 57.8672L47.9141 56.9576C47.9115 56.9627 47.909 56.9677 47.9065 56.9728L49.6953 57.8672ZM49.7188 55.4297L47.9138 56.2911C47.9217 56.3078 47.9299 56.3243 47.9383 56.3406L49.7188 55.4297ZM48.957 54.6328L47.969 56.3717C47.9791 56.3774 47.9892 56.3831 47.9993 56.3886L48.957 54.6328ZM45.3477 56.3555V58.3555C46.4522 58.3555 47.3477 57.46 47.3477 56.3555H45.3477ZM41.9609 56.3555H39.9609C39.9609 57.46 40.8564 58.3555 41.9609 58.3555V56.3555ZM42.7109 53.9062L41.0958 52.7267C41.0929 52.7306 41.09 52.7346 41.0872 52.7386L42.7109 53.9062ZM50.5977 52.2539L49.8038 54.0896C49.8085 54.0916 49.8132 54.0936 49.8178 54.0956L50.5977 52.2539ZM52.9766 58.125L54.7655 59.0194L54.7709 59.0084L52.9766 58.125ZM51.8984 59.4844L53.2063 60.9974L53.2083 60.9958L51.8984 59.4844ZM50.2109 60.4453L50.8766 62.3313C50.8831 62.329 50.8897 62.3266 50.8962 62.3243L50.2109 60.4453ZM45.6289 60.7969H43.6289C43.6289 61.9014 44.5243 62.7969 45.6289 62.7969V60.7969ZM45.6289 61.5703H43.6289C43.6289 62.6749 44.5243 63.5703 45.6289 63.5703V61.5703ZM45.6289 59.8242V57.8242C44.5243 57.8242 43.6289 58.7196 43.6289 59.8242H45.6289ZM52.1914 61.0547L50.9086 62.5891C50.9135 62.5932 50.9185 62.5974 50.9236 62.6015L52.1914 61.0547ZM53.2695 62.4492L51.4452 63.2689L51.4497 63.2788L53.2695 62.4492ZM53.1758 66.3516L54.9692 67.2369L54.9735 67.228L53.1758 66.3516ZM51.8867 67.9219L50.6619 66.3407L50.6511 66.3492L51.8867 67.9219ZM49.9648 68.9062L50.5358 70.823C50.542 70.8212 50.5482 70.8193 50.5544 70.8174L49.9648 68.9062ZM45.4414 68.9414L44.8747 70.8594C44.8833 70.862 44.8919 70.8645 44.9005 70.8669L45.4414 68.9414ZM43.5664 68.0391L42.3847 69.6526C42.3932 69.6588 42.4018 69.665 42.4104 69.6711L43.5664 68.0391ZM42.2305 66.5156L40.4645 67.4545C40.4693 67.4634 40.4741 67.4723 40.479 67.4812L42.2305 66.5156ZM41.7383 64.3242V62.3242C40.6337 62.3242 39.7383 63.2196 39.7383 64.3242H41.7383ZM45.125 64.3242H47.125C47.125 63.2196 46.2296 62.3242 45.125 62.3242V64.3242ZM46.3555 66.3047L45.4465 68.0862C45.4514 68.0887 45.4562 68.0911 45.461 68.0935L46.3555 66.3047ZM49.0391 66.3047L49.948 68.0862C49.9526 68.0839 49.9572 68.0815 49.9618 68.0791L49.0391 66.3047ZM49.9297 65.4609L48.1954 64.4647L48.1886 64.4768L49.9297 65.4609ZM49.9062 62.6836L48.1851 63.7022C48.1882 63.7074 48.1913 63.7126 48.1944 63.7178L49.9062 62.6836ZM45.6289 61.0039H47.4336V57.0039H45.6289V61.0039ZM47.4336 61.0039C48.2211 61.0039 49.0416 60.8731 49.7872 60.4848L47.9394 56.9371C47.935 56.9394 47.8023 57.0039 47.4336 57.0039V61.0039ZM49.8158 60.4695C50.5282 60.0837 51.1094 59.5112 51.4842 58.7616L47.9065 56.9728C47.9071 56.9715 47.9095 56.9669 47.9141 56.9605C47.9187 56.9541 47.9238 56.9481 47.9285 56.9434C47.9331 56.9386 47.9355 56.937 47.9339 56.9382C47.9322 56.9395 47.9251 56.9445 47.9107 56.9524L49.8158 60.4695ZM51.4765 58.7767C51.831 58.0826 51.9766 57.3353 51.9766 56.5898H47.9766C47.9766 56.8132 47.9346 56.9174 47.9141 56.9576L51.4765 58.7767ZM51.9766 56.5898C51.9766 55.8862 51.8368 55.1785 51.4992 54.5187L47.9383 56.3406C47.9445 56.3528 47.9766 56.4185 47.9766 56.5898H51.9766ZM51.5237 54.5682C51.173 53.8334 50.6169 53.26 49.9147 52.877L47.9993 56.3886C48.0021 56.3901 47.9841 56.3803 47.9595 56.3546C47.9346 56.3285 47.9198 56.3037 47.9138 56.2911L51.5237 54.5682ZM49.9451 52.8939C49.218 52.4808 48.4175 52.3398 47.6562 52.3398V56.3398C47.9419 56.3398 48.0086 56.3942 47.969 56.3717L49.9451 52.8939ZM47.6562 52.3398C46.97 52.3398 46.296 52.4777 45.662 52.7736L47.3536 56.3983C47.4227 56.366 47.5144 56.3398 47.6562 56.3398V52.3398ZM45.662 52.7736C45.018 53.0741 44.4583 53.5214 44.0337 54.1189L47.2944 56.4358C47.297 56.4322 47.2981 56.4311 47.3008 56.4288C47.3041 56.4261 47.3189 56.4145 47.3536 56.3983L45.662 52.7736ZM44.0337 54.1189C43.5457 54.8057 43.3477 55.5864 43.3477 56.3555H47.3477C47.3477 56.3115 47.3531 56.3081 47.3458 56.3327C47.3423 56.3448 47.3364 56.3612 47.3272 56.3803C47.3179 56.3995 47.3068 56.4183 47.2944 56.4358L44.0337 54.1189ZM45.3477 54.3555H41.9609V58.3555H45.3477V54.3555ZM43.9609 56.3555C43.9609 55.7953 44.1026 55.3966 44.3347 55.0739L41.0872 52.7386C40.3193 53.8065 39.9609 55.0407 39.9609 56.3555H43.9609ZM44.3261 55.0858C44.6148 54.6905 45.0149 54.3562 45.5839 54.0952L43.9161 50.4595C42.782 50.9797 41.8227 51.7314 41.0958 52.7267L44.3261 55.0858ZM45.5839 54.0952C46.1504 53.8353 46.8 53.6914 47.5625 53.6914V49.6914C46.2781 49.6914 45.0527 49.9381 43.9161 50.4595L45.5839 54.0952ZM47.5625 53.6914C48.5053 53.6914 49.2367 53.8444 49.8038 54.0896L51.3915 50.4182C50.2242 49.9134 48.9322 49.6914 47.5625 49.6914V53.6914ZM49.8178 54.0956C50.3604 54.3253 50.7174 54.6309 50.9665 55.0005L54.2835 52.7651C53.5638 51.6972 52.5693 50.9169 51.3775 50.4122L49.8178 54.0956ZM50.9665 55.0005C51.1824 55.321 51.3516 55.7997 51.3516 56.5547H55.3516C55.3516 55.1847 55.0363 53.8821 54.2835 52.7651L50.9665 55.0005ZM51.3516 56.5547C51.3516 56.7721 51.3039 56.9945 51.1822 57.2416L54.7709 59.0084C55.1493 58.2399 55.3516 57.4154 55.3516 56.5547H51.3516ZM51.1877 57.2306C51.0675 57.4709 50.8805 57.72 50.5886 57.973L53.2083 60.9958C53.8539 60.4362 54.3856 59.7791 54.7654 59.0194L51.1877 57.2306ZM50.5905 57.9713C50.3401 58.1878 49.9977 58.3942 49.5257 58.5664L50.8962 62.3243C51.7523 62.012 52.5349 61.5778 53.2063 60.9974L50.5905 57.9713ZM49.5453 58.5593C49.129 58.7063 48.613 58.7969 47.9727 58.7969V62.7969C48.9885 62.7969 49.9648 62.6531 50.8766 62.3313L49.5453 58.5593ZM47.9727 58.7969H45.6289V62.7969H47.9727V58.7969ZM47.6289 60.7969V59.0039H43.6289V60.7969H47.6289ZM47.6289 61.5703V59.8242H43.6289V61.5703H47.6289ZM45.6289 61.8242H47.9727V57.8242H45.6289V61.8242ZM47.9727 61.8242C48.7569 61.8242 49.3724 61.9138 49.8472 62.0563L50.9966 58.225C50.0651 57.9455 49.0478 57.8242 47.9727 57.8242V61.8242ZM49.8472 62.0563C50.3373 62.2033 50.674 62.393 50.9086 62.5891L53.4742 59.5203C52.7557 58.9195 51.9127 58.4998 50.9966 58.225L49.8472 62.0563ZM50.9236 62.6015C51.1714 62.8046 51.3352 63.0241 51.4452 63.2688L55.0939 61.6296C54.7195 60.7962 54.1645 60.086 53.4593 59.5079L50.9236 62.6015ZM51.4497 63.2788C51.5606 63.5221 51.6328 63.8247 51.6328 64.2188H55.6328C55.6328 63.3159 55.4628 62.4388 55.0893 61.6196L51.4497 63.2788ZM51.6328 64.2188C51.6328 64.7564 51.5314 65.1605 51.378 65.4752L54.9735 67.228C55.4295 66.2927 55.6328 65.2749 55.6328 64.2188H51.6328ZM51.3824 65.4662C51.2147 65.806 50.9816 66.0932 50.6619 66.3408L53.1115 69.503C53.9012 68.8912 54.5275 68.1315 54.9692 67.2369L51.3824 65.4662ZM50.6511 66.3492C50.3162 66.6123 49.8999 66.8333 49.3752 66.9951L50.5544 70.8174C51.4985 70.5261 52.3635 70.0908 53.1224 69.4945L50.6511 66.3492ZM49.3939 66.9895C48.8674 67.1463 48.2614 67.2344 47.5625 67.2344V71.2344C48.598 71.2344 49.5936 71.1037 50.5358 70.823L49.3939 66.9895ZM47.5625 67.2344C47.0275 67.2344 46.5024 67.162 45.9823 67.0159L44.9005 70.8669C45.771 71.1114 46.66 71.2344 47.5625 71.2344V67.2344ZM46.0081 67.0234C45.5229 66.88 45.0984 66.6733 44.7224 66.407L42.4104 69.6711C43.1594 70.2017 43.9849 70.5965 44.8747 70.8594L46.0081 67.0234ZM44.7481 66.4255C44.4312 66.1934 44.1791 65.9077 43.982 65.5501L40.479 67.4812C40.9537 68.3423 41.5923 69.0723 42.3847 69.6526L44.7481 66.4255ZM43.9964 65.5768C43.8507 65.3027 43.7383 64.9079 43.7383 64.3242H39.7383C39.7383 65.4281 39.954 66.4941 40.4645 67.4545L43.9964 65.5768ZM41.7383 66.3242H45.125V62.3242H41.7383V66.3242ZM43.125 64.3242C43.125 65.1128 43.3277 65.8814 43.7658 66.5698L47.1404 64.4223C47.1359 64.4152 47.1345 64.4116 47.133 64.4061C47.1311 64.3995 47.125 64.3749 47.125 64.3242H43.125ZM43.7658 66.5698C44.1868 67.2315 44.7639 67.7379 45.4465 68.0862L47.2644 64.5232C47.1814 64.4808 47.1569 64.4482 47.1404 64.4223L43.7658 66.5698ZM45.461 68.0935C46.1541 68.4401 46.898 68.5977 47.6562 68.5977V64.5977C47.4614 64.5977 47.3381 64.5599 47.2499 64.5158L45.461 68.0935ZM47.6562 68.5977C48.4328 68.5977 49.2212 68.457 49.948 68.0862L48.1301 64.5232C48.0913 64.543 47.9579 64.5977 47.6562 64.5977V68.5977ZM49.9618 68.0791C50.672 67.7098 51.2643 67.1643 51.6708 66.4451L48.1886 64.4768C48.184 64.4849 48.1818 64.4871 48.1792 64.4895C48.1759 64.4926 48.1591 64.508 48.1164 64.5303L49.9618 68.0791ZM51.6639 66.4572C52.0728 65.7455 52.2461 64.9665 52.2461 64.1836H48.2461C48.2461 64.3694 48.2085 64.442 48.1955 64.4647L51.6639 66.4572ZM52.2461 64.1836C52.2461 63.3413 52.097 62.4421 51.6181 61.6494L48.1944 63.7178C48.1686 63.6751 48.2461 63.7758 48.2461 64.1836H52.2461ZM51.6274 61.665C51.1768 60.9035 50.5182 60.3409 49.7173 59.9998L48.1499 63.6799C48.167 63.6872 48.1766 63.6927 48.1805 63.6951C48.1843 63.6975 48.1845 63.698 48.1826 63.6963C48.1807 63.6947 48.1792 63.693 48.1786 63.6923C48.1781 63.6917 48.1805 63.6944 48.1851 63.7022L51.6274 61.665ZM49.7173 59.9998C48.9921 59.6909 48.2133 59.5703 47.4336 59.5703V63.5703C47.8101 63.5703 48.0313 63.6294 48.1499 63.6799L49.7173 59.9998ZM47.4336 59.5703H45.6289V63.5703H47.4336V59.5703Z" fill="#C28044"/>
</g>
<defs>
<filter id="filter0_d_748_5739" x="0" y="0" width="98" height="98" filterUnits="userSpaceOnUse" color-interpolation-filters="sRGB">
<feFlood flood-opacity="0" result="BackgroundImageFix"/>
<feColorMatrix in="SourceAlpha" type="matrix" values="0 0 0 0 0 0 0 0 0 0 0 0 0 0 0 0 0 0 127 0" result="hardAlpha"/>
<feOffset dx="2" dy="2"/>
<feColorMatrix type="matrix" values="0 0 0 0 0.637788 0 0 0 0 0.545996 0 0 0 0 0.47948 0 0 0 0.2 0"/>
<feBlend mode="normal" in2="BackgroundImageFix" result="effect1_dropShadow_748_5739"/>
<feBlend mode="normal" in="SourceGraphic" in2="effect1_dropShadow_748_5739" result="shape"/>
</filter>
</defs>
</svg>
