<svg width="96" height="96" viewBox="0 0 96 96" fill="none" xmlns="http://www.w3.org/2000/svg">
<g filter="url(#filter0_d_748_5737)">
<path d="M37.5826 8.97101C37.2212 8.3686 36.5701 8 35.8676 8H16.5324C14.9778 8 14.0176 9.69594 14.8174 11.029L36.4174 47.029C36.7788 47.6314 37.4298 48 38.1324 48H57.4676C59.0222 48 59.9824 46.3041 59.1826 44.971L37.5826 8.97101Z" fill="#0355B6"/>
<path fill-rule="evenodd" clip-rule="evenodd" d="M35.8665 6H16.5312C13.4221 6 11.5016 9.39189 13.1013 12.058L34.7013 48.058C35.4242 49.2628 36.7262 50 38.1312 50H57.4665C60.5757 50 62.4961 46.6081 60.8965 43.942L39.2965 7.94202C38.5736 6.7372 37.2715 6 35.8665 6ZM35.8665 8C36.569 8 37.22 8.3686 37.5815 8.97101L59.1815 44.971C59.9813 46.3041 59.0211 48 57.4665 48H38.1312C37.4287 48 36.7777 47.6314 36.4163 47.029L14.8163 11.029C14.0164 9.69594 14.9767 8 16.5312 8H35.8665Z" fill="#023E84"/>
<path d="M58.4174 8.97101C58.7788 8.3686 59.4299 8 60.1324 8H79.4676C81.0222 8 81.9824 9.69594 81.1826 11.029L59.5826 47.029C59.2212 47.6314 58.5702 48 57.8676 48H38.5324C36.9778 48 36.0176 46.3041 36.8174 44.971L58.4174 8.97101Z" fill="#086FE9"/>
<path fill-rule="evenodd" clip-rule="evenodd" d="M60.1316 6H79.4668C82.576 6 84.4964 9.39189 82.8968 12.058L61.2968 48.058C60.5739 49.2628 59.2719 50 57.8668 50H38.5316C35.4224 50 33.5019 46.6081 35.1016 43.942L56.7016 7.94202C57.4245 6.7372 58.7265 6 60.1316 6ZM60.1316 8C59.429 8 58.778 8.3686 58.4166 8.97101L36.8166 44.971C36.0168 46.3041 36.977 48 38.5316 48H57.8668C58.5693 48 59.2203 47.6314 59.5818 47.029L81.1818 11.029C81.9816 9.69594 81.0214 8 79.4668 8H60.1316Z" fill="#023E84"/>
<path fill-rule="evenodd" clip-rule="evenodd" d="M60.5023 9.13538C60.9799 9.4127 61.1423 10.0247 60.865 10.5023L51.865 26.0023C51.5876 26.4799 50.9756 26.6423 50.498 26.365C50.0204 26.0876 49.8581 25.4756 50.1354 24.998L59.1354 9.49803C59.4127 9.02042 60.0247 8.85805 60.5023 9.13538Z" fill="#3D96FF"/>
<path fill-rule="evenodd" clip-rule="evenodd" d="M16.4977 9.13538C16.0201 9.4127 15.8577 10.0247 16.135 10.5023L25.135 26.0023C25.4124 26.4799 26.0244 26.6423 26.502 26.365C26.9796 26.0876 27.1419 25.4756 26.8646 24.998L17.8646 9.49803C17.5873 9.02042 16.9753 8.85805 16.4977 9.13538Z" fill="#1871DA"/>
<path d="M35.5 11.2812C35.5 11.9889 34.9404 12.5625 34.25 12.5625C33.5596 12.5625 33 11.9889 33 11.2812C33 10.5736 33.5596 10 34.25 10C34.9404 10 35.5 10.5736 35.5 11.2812Z" fill="#034592"/>
<path d="M31.1098 11.5938C31.1098 12.474 30.4136 13.1875 29.5549 13.1875C28.6961 13.1875 28 12.474 28 11.5938C28 10.7135 28.6961 10 29.5549 10C30.4136 10 31.1098 10.7135 31.1098 11.5938Z" fill="#034592"/>
<path d="M35.0004 16.1562C35.0004 17.0365 34.3042 17.75 33.4455 17.75C32.5868 17.75 31.8906 17.0365 31.8906 16.1562C31.8906 15.276 32.5868 14.5625 33.4455 14.5625C34.3042 14.5625 35.0004 15.276 35.0004 16.1562Z" fill="#034592"/>
<path d="M38.5549 13.9844C38.5549 14.4245 38.2068 14.7812 37.7774 14.7812C37.3481 14.7812 37 14.4245 37 13.9844C37 13.5443 37.3481 13.1875 37.7774 13.1875C38.2068 13.1875 38.5549 13.5443 38.5549 13.9844Z" fill="#034592"/>
<path d="M30.3322 15.3594C30.3322 15.7995 29.9842 16.1562 29.5548 16.1562C29.1254 16.1562 28.7773 15.7995 28.7773 15.3594C28.7773 14.9193 29.1254 14.5625 29.5548 14.5625C29.9842 14.5625 30.3322 14.9193 30.3322 15.3594Z" fill="#034592"/>
<path d="M26.0002 10.4844C26.0002 10.9245 25.6521 11.2812 25.2228 11.2812C24.7934 11.2812 24.4453 10.9245 24.4453 10.4844C24.4453 10.0443 24.7934 9.6875 25.2228 9.6875C25.6521 9.6875 26.0002 10.0443 26.0002 10.4844Z" fill="#034592"/>
<path d="M37.7775 19.5469C37.7775 19.987 37.4295 20.3438 37.0001 20.3438C36.5707 20.3438 36.2227 19.987 36.2227 19.5469C36.2227 19.1068 36.5707 18.75 37.0001 18.75C37.4295 18.75 37.7775 19.1068 37.7775 19.5469Z" fill="#034592"/>
<path d="M33.7775 20.3438C33.7775 20.7839 33.4295 21.1406 33.0001 21.1406C32.5707 21.1406 32.2227 20.7839 32.2227 20.3438C32.2227 19.9036 32.5707 19.5469 33.0001 19.5469C33.4295 19.5469 33.7775 19.9036 33.7775 20.3438Z" fill="#034592"/>
<path d="M41.5305 17.4531C41.5305 18.1694 40.964 18.75 40.2652 18.75C39.5665 18.75 39 18.1694 39 17.4531C39 16.7369 39.5665 16.1562 40.2652 16.1562C40.964 16.1562 41.5305 16.7369 41.5305 17.4531Z" fill="#034592"/>
<path d="M43.1799 21.1406C43.1799 21.5807 42.8318 21.9375 42.4024 21.9375C41.9731 21.9375 41.625 21.5807 41.625 21.1406C41.625 20.7005 41.9731 20.3438 42.4024 20.3438C42.8318 20.3438 43.1799 20.7005 43.1799 21.1406Z" fill="#034592"/>
<path d="M75 61C75 75.9117 62.9117 88 48 88C33.0883 88 21 75.9117 21 61C21 46.0883 33.0883 34 48 34C62.9117 34 75 46.0883 75 61Z" fill="#FFBB0D"/>
<path fill-rule="evenodd" clip-rule="evenodd" d="M77 61C77 77.0163 64.0163 90 48 90C31.9837 90 19 77.0163 19 61C19 44.9837 31.9837 32 48 32C64.0163 32 77 44.9837 77 61ZM48 88C62.9117 88 75 75.9117 75 61C75 46.0883 62.9117 34 48 34C33.0883 34 21 46.0883 21 61C21 75.9117 33.0883 88 48 88Z" fill="#E89B05"/>
<path fill-rule="evenodd" clip-rule="evenodd" d="M23 62C22.4477 62 22 61.5523 22 61C22 46.6406 33.6406 35 48 35C48.5523 35 49 35.4477 49 36C49 36.5523 48.5523 37 48 37C34.7452 37 24 47.7452 24 61C24 61.5523 23.5523 62 23 62Z" fill="#E8AA0A"/>
<path fill-rule="evenodd" clip-rule="evenodd" d="M73 60C73.5523 60 74 60.4477 74 61C74 75.3594 62.3594 87 48 87C47.4477 87 47 86.5523 47 86C47 85.4477 47.4477 85 48 85C61.2548 85 72 74.2548 72 61C72 60.4477 72.4477 60 73 60Z" fill="#E8AA0A"/>
<path d="M68 61C68 72.0457 59.0457 81 48 81C36.9543 81 28 72.0457 28 61C28 49.9543 36.9543 41 48 41C59.0457 41 68 49.9543 68 61Z" fill="#FFDD28"/>
<path fill-rule="evenodd" clip-rule="evenodd" d="M70 61C70 73.1503 60.1503 83 48 83C35.8497 83 26 73.1503 26 61C26 48.8497 35.8497 39 48 39C60.1503 39 70 48.8497 70 61ZM48 81C59.0457 81 68 72.0457 68 61C68 49.9543 59.0457 41 48 41C36.9543 41 28 49.9543 28 61C28 72.0457 36.9543 81 48 81Z" fill="#E89B05"/>
<path fill-rule="evenodd" clip-rule="evenodd" d="M48 78C57.3888 78 65 70.3888 65 61C65 60.4477 65.4477 60 66 60C66.5523 60 67 60.4477 67 61C67 71.4934 58.4934 80 48 80C47.4477 80 47 79.5523 47 79C47 78.4477 47.4477 78 48 78Z" fill="#ECC704"/>
<path fill-rule="evenodd" clip-rule="evenodd" d="M48 44C38.6112 44 31 51.6112 31 61C31 61.5523 30.5523 62 30 62C29.4477 62 29 61.5523 29 61C29 50.5066 37.5066 42 48 42C48.5523 42 49 42.4477 49 43C49 43.5523 48.5523 44 48 44Z" fill="#FFEF9C"/>
<path d="M50.3867 69H47V55.9453L42.957 57.1992V54.4453L50.0234 51.9141H50.3867V69Z" fill="#FFEF9C"/>
<path fill-rule="evenodd" clip-rule="evenodd" d="M52.3867 69C52.3867 70.1046 51.4913 71 50.3867 71H47C45.8954 71 45 70.1046 45 69V58.6596L43.5495 59.1095C42.9425 59.2977 42.2822 59.1863 41.7706 58.8093C41.259 58.4324 40.957 57.8347 40.957 57.1992V54.4453C40.957 53.6008 41.4875 52.8473 42.2826 52.5625L49.349 50.0312C49.5654 49.9537 49.7936 49.9141 50.0234 49.9141H50.3867C51.4913 49.9141 52.3867 50.8095 52.3867 51.9141V69ZM47 55.9453V69H50.3867V51.9141H50.0234L42.957 54.4453V57.1992L47 55.9453Z" fill="#E89B05"/>
</g>
<defs>
<filter id="filter0_d_748_5737" x="0" y="0" width="98" height="98" filterUnits="userSpaceOnUse" color-interpolation-filters="sRGB">
<feFlood flood-opacity="0" result="BackgroundImageFix"/>
<feColorMatrix in="SourceAlpha" type="matrix" values="0 0 0 0 0 0 0 0 0 0 0 0 0 0 0 0 0 0 127 0" result="hardAlpha"/>
<feOffset dx="2" dy="2"/>
<feColorMatrix type="matrix" values="0 0 0 0 0.637788 0 0 0 0 0.545996 0 0 0 0 0.47948 0 0 0 0.2 0"/>
<feBlend mode="normal" in2="BackgroundImageFix" result="effect1_dropShadow_748_5737"/>
<feBlend mode="normal" in="SourceGraphic" in2="effect1_dropShadow_748_5737" result="shape"/>
</filter>
</defs>
</svg>
