<svg width="96" height="96" viewBox="0 0 96 96" fill="none" xmlns="http://www.w3.org/2000/svg">
<g filter="url(#filter0_d_748_5738)">
<path d="M37.5826 8.97101C37.2212 8.3686 36.5701 8 35.8676 8H16.5324C14.9778 8 14.0176 9.69594 14.8174 11.029L36.4174 47.029C36.7788 47.6314 37.4298 48 38.1324 48H57.4676C59.0222 48 59.9824 46.3041 59.1826 44.971L37.5826 8.97101Z" fill="#0355B6"/>
<path fill-rule="evenodd" clip-rule="evenodd" d="M35.8665 6H16.5312C13.4221 6 11.5016 9.39189 13.1013 12.058L34.7013 48.058C35.4242 49.2628 36.7262 50 38.1312 50H57.4665C60.5757 50 62.4961 46.6081 60.8965 43.942L39.2965 7.94202C38.5736 6.7372 37.2715 6 35.8665 6ZM35.8665 8C36.569 8 37.22 8.3686 37.5815 8.97101L59.1815 44.971C59.9813 46.3041 59.0211 48 57.4665 48H38.1312C37.4287 48 36.7777 47.6314 36.4163 47.029L14.8163 11.029C14.0164 9.69594 14.9767 8 16.5312 8H35.8665Z" fill="#023E84"/>
<path d="M58.4174 8.97101C58.7788 8.3686 59.4299 8 60.1324 8H79.4676C81.0222 8 81.9824 9.69594 81.1826 11.029L59.5826 47.029C59.2212 47.6314 58.5702 48 57.8676 48H38.5324C36.9778 48 36.0176 46.3041 36.8174 44.971L58.4174 8.97101Z" fill="#086FE9"/>
<path fill-rule="evenodd" clip-rule="evenodd" d="M60.1316 6H79.4668C82.576 6 84.4964 9.39189 82.8968 12.058L61.2968 48.058C60.5739 49.2628 59.2719 50 57.8668 50H38.5316C35.4224 50 33.5019 46.6081 35.1016 43.942L56.7016 7.94202C57.4245 6.7372 58.7265 6 60.1316 6ZM60.1316 8C59.429 8 58.778 8.3686 58.4166 8.97101L36.8166 44.971C36.0168 46.3041 36.977 48 38.5316 48H57.8668C58.5693 48 59.2203 47.6314 59.5818 47.029L81.1818 11.029C81.9816 9.69594 81.0214 8 79.4668 8H60.1316Z" fill="#023E84"/>
<path fill-rule="evenodd" clip-rule="evenodd" d="M60.5023 9.13538C60.9799 9.4127 61.1423 10.0247 60.865 10.5023L51.865 26.0023C51.5876 26.4799 50.9756 26.6423 50.498 26.365C50.0204 26.0876 49.8581 25.4756 50.1354 24.998L59.1354 9.49803C59.4127 9.02042 60.0247 8.85805 60.5023 9.13538Z" fill="#3D96FF"/>
<path fill-rule="evenodd" clip-rule="evenodd" d="M16.4977 9.13538C16.0201 9.4127 15.8577 10.0247 16.135 10.5023L25.135 26.0023C25.4124 26.4799 26.0244 26.6423 26.502 26.365C26.9796 26.0876 27.1419 25.4756 26.8646 24.998L17.8646 9.49803C17.5873 9.02042 16.9753 8.85805 16.4977 9.13538Z" fill="#1871DA"/>
<path d="M35.5 11.2812C35.5 11.9889 34.9404 12.5625 34.25 12.5625C33.5596 12.5625 33 11.9889 33 11.2812C33 10.5736 33.5596 10 34.25 10C34.9404 10 35.5 10.5736 35.5 11.2812Z" fill="#034592"/>
<path d="M31.1098 11.5938C31.1098 12.474 30.4136 13.1875 29.5549 13.1875C28.6961 13.1875 28 12.474 28 11.5938C28 10.7135 28.6961 10 29.5549 10C30.4136 10 31.1098 10.7135 31.1098 11.5938Z" fill="#034592"/>
<path d="M35.0004 16.1562C35.0004 17.0365 34.3042 17.75 33.4455 17.75C32.5868 17.75 31.8906 17.0365 31.8906 16.1562C31.8906 15.276 32.5868 14.5625 33.4455 14.5625C34.3042 14.5625 35.0004 15.276 35.0004 16.1562Z" fill="#034592"/>
<path d="M38.5549 13.9844C38.5549 14.4245 38.2068 14.7812 37.7774 14.7812C37.3481 14.7812 37 14.4245 37 13.9844C37 13.5443 37.3481 13.1875 37.7774 13.1875C38.2068 13.1875 38.5549 13.5443 38.5549 13.9844Z" fill="#034592"/>
<path d="M30.3322 15.3594C30.3322 15.7995 29.9842 16.1562 29.5548 16.1562C29.1254 16.1562 28.7773 15.7995 28.7773 15.3594C28.7773 14.9193 29.1254 14.5625 29.5548 14.5625C29.9842 14.5625 30.3322 14.9193 30.3322 15.3594Z" fill="#034592"/>
<path d="M26.0002 10.4844C26.0002 10.9245 25.6521 11.2812 25.2228 11.2812C24.7934 11.2812 24.4453 10.9245 24.4453 10.4844C24.4453 10.0443 24.7934 9.6875 25.2228 9.6875C25.6521 9.6875 26.0002 10.0443 26.0002 10.4844Z" fill="#034592"/>
<path d="M37.7775 19.5469C37.7775 19.987 37.4295 20.3438 37.0001 20.3438C36.5707 20.3438 36.2227 19.987 36.2227 19.5469C36.2227 19.1068 36.5707 18.75 37.0001 18.75C37.4295 18.75 37.7775 19.1068 37.7775 19.5469Z" fill="#034592"/>
<path d="M33.7775 20.3438C33.7775 20.7839 33.4295 21.1406 33.0001 21.1406C32.5707 21.1406 32.2227 20.7839 32.2227 20.3438C32.2227 19.9036 32.5707 19.5469 33.0001 19.5469C33.4295 19.5469 33.7775 19.9036 33.7775 20.3438Z" fill="#034592"/>
<path d="M41.5305 17.4531C41.5305 18.1694 40.964 18.75 40.2652 18.75C39.5665 18.75 39 18.1694 39 17.4531C39 16.7369 39.5665 16.1562 40.2652 16.1562C40.964 16.1562 41.5305 16.7369 41.5305 17.4531Z" fill="#034592"/>
<path d="M43.1799 21.1406C43.1799 21.5807 42.8318 21.9375 42.4024 21.9375C41.9731 21.9375 41.625 21.5807 41.625 21.1406C41.625 20.7005 41.9731 20.3438 42.4024 20.3438C42.8318 20.3438 43.1799 20.7005 43.1799 21.1406Z" fill="#034592"/>
<path d="M75 61C75 75.9117 62.9117 88 48 88C33.0883 88 21 75.9117 21 61C21 46.0883 33.0883 34 48 34C62.9117 34 75 46.0883 75 61Z" fill="#BCCCD2"/>
<path fill-rule="evenodd" clip-rule="evenodd" d="M77 61C77 77.0163 64.0163 90 48 90C31.9837 90 19 77.0163 19 61C19 44.9837 31.9837 32 48 32C64.0163 32 77 44.9837 77 61ZM48 88C62.9117 88 75 75.9117 75 61C75 46.0883 62.9117 34 48 34C33.0883 34 21 46.0883 21 61C21 75.9117 33.0883 88 48 88Z" fill="#81A5B0"/>
<path fill-rule="evenodd" clip-rule="evenodd" d="M23 62C22.4477 62 22 61.5523 22 61C22 46.6406 33.6406 35 48 35C48.5523 35 49 35.4477 49 36C49 36.5523 48.5523 37 48 37C34.7452 37 24 47.7452 24 61C24 61.5523 23.5523 62 23 62Z" fill="#D0DEE3"/>
<path fill-rule="evenodd" clip-rule="evenodd" d="M73 60C73.5523 60 74 60.4477 74 61C74 75.3594 62.3594 87 48 87C47.4477 87 47 86.5523 47 86C47 85.4477 47.4477 85 48 85C61.2548 85 72 74.2548 72 61C72 60.4477 72.4477 60 73 60Z" fill="#A2B9C1"/>
<path d="M68 61C68 72.0457 59.0457 81 48 81C36.9543 81 28 72.0457 28 61C28 49.9543 36.9543 41 48 41C59.0457 41 68 49.9543 68 61Z" fill="#C7D4D8"/>
<path fill-rule="evenodd" clip-rule="evenodd" d="M70 61C70 73.1503 60.1503 83 48 83C35.8497 83 26 73.1503 26 61C26 48.8497 35.8497 39 48 39C60.1503 39 70 48.8497 70 61ZM48 81C59.0457 81 68 72.0457 68 61C68 49.9543 59.0457 41 48 41C36.9543 41 28 49.9543 28 61C28 72.0457 36.9543 81 48 81Z" fill="#81A5B0"/>
<path fill-rule="evenodd" clip-rule="evenodd" d="M48 78C57.3888 78 65 70.3888 65 61C65 60.4477 65.4477 60 66 60C66.5523 60 67 60.4477 67 61C67 71.4934 58.4934 80 48 80C47.4477 80 47 79.5523 47 79C47 78.4477 47.4477 78 48 78Z" fill="#B5C3C8"/>
<path fill-rule="evenodd" clip-rule="evenodd" d="M48 44C38.6112 44 31 51.6112 31 61C31 61.5523 30.5523 62 30 62C29.4477 62 29 61.5523 29 61C29 50.5066 37.5066 42 48 42C48.5523 42 49 42.4477 49 43C49 43.5523 48.5523 44 48 44Z" fill="#D9EAEF"/>
<path d="M53.8438 66.3633V69H42.1719V66.75L47.6914 60.832C48.2461 60.2148 48.6836 59.6719 49.0039 59.2031C49.3242 58.7266 49.5547 58.3008 49.6953 57.9258C49.8438 57.543 49.918 57.1797 49.918 56.8359C49.918 56.3203 49.832 55.8789 49.6602 55.5117C49.4883 55.1367 49.2344 54.8477 48.8984 54.6445C48.5703 54.4414 48.1641 54.3398 47.6797 54.3398C47.1641 54.3398 46.7188 54.4648 46.3438 54.7148C45.9766 54.9648 45.6953 55.3125 45.5 55.7578C45.3125 56.2031 45.2188 56.707 45.2188 57.2695H41.832C41.832 56.2539 42.0742 55.3242 42.5586 54.4805C43.043 53.6289 43.7266 52.9531 44.6094 52.4531C45.4922 51.9453 46.5391 51.6914 47.75 51.6914C48.9453 51.6914 49.9531 51.8867 50.7734 52.2773C51.6016 52.6602 52.2266 53.2148 52.6484 53.9414C53.0781 54.6602 53.293 55.5195 53.293 56.5195C53.293 57.082 53.2031 57.6328 53.0234 58.1719C52.8438 58.7031 52.5859 59.2344 52.25 59.7656C51.9219 60.2891 51.5234 60.8203 51.0547 61.3594C50.5859 61.8984 50.0664 62.457 49.4961 63.0352L46.5312 66.3633H53.8438Z" fill="#D9EAEF"/>
<path d="M53.8438 66.3633H55.8438C55.8438 65.2587 54.9483 64.3633 53.8438 64.3633V66.3633ZM53.8438 69V71C54.9483 71 55.8438 70.1046 55.8438 69H53.8438ZM42.1719 69H40.1719C40.1719 70.1046 41.0673 71 42.1719 71V69ZM42.1719 66.75L40.7093 65.3859C40.3639 65.7562 40.1719 66.2437 40.1719 66.75H42.1719ZM47.6914 60.832L49.154 62.1962C49.1624 62.1872 49.1707 62.1781 49.1789 62.1689L47.6914 60.832ZM49.0039 59.2031L50.6552 60.3315C50.6581 60.3273 50.661 60.323 50.6638 60.3188L49.0039 59.2031ZM49.6953 57.9258L47.8306 57.2027C47.8279 57.2096 47.8253 57.2166 47.8227 57.2235L49.6953 57.9258ZM49.6602 55.5117L47.842 56.345C47.8443 56.3499 47.8465 56.3548 47.8488 56.3596L49.6602 55.5117ZM48.8984 54.6445L47.8457 56.3451C47.8517 56.3487 47.8576 56.3524 47.8636 56.356L48.8984 54.6445ZM46.3438 54.7148L45.2343 53.0507C45.2289 53.0544 45.2235 53.058 45.2182 53.0616L46.3438 54.7148ZM45.5 55.7578L43.6684 54.9545C43.6645 54.9635 43.6606 54.9726 43.6567 54.9817L45.5 55.7578ZM45.2188 57.2695V59.2695C46.3233 59.2695 47.2188 58.3741 47.2188 57.2695H45.2188ZM41.832 57.2695H39.832C39.832 58.3741 40.7275 59.2695 41.832 59.2695V57.2695ZM42.5586 54.4805L44.2931 55.4762L44.297 55.4693L42.5586 54.4805ZM44.6094 52.4531L45.595 54.1934L45.6066 54.1868L44.6094 52.4531ZM50.7734 52.2773L49.9136 54.0831C49.9204 54.0863 49.9273 54.0896 49.9342 54.0928L50.7734 52.2773ZM52.6484 53.9414L50.9189 54.9457C50.9231 54.953 50.9274 54.9604 50.9318 54.9677L52.6484 53.9414ZM53.0234 58.1719L54.918 58.8127L54.9208 58.8043L53.0234 58.1719ZM52.25 59.7656L50.5596 58.6967L50.5554 58.7034L52.25 59.7656ZM49.4961 63.0352L48.0723 61.6306C48.0485 61.6547 48.0253 61.6795 48.0027 61.7048L49.4961 63.0352ZM46.5312 66.3633L45.0379 65.0329C44.5137 65.6213 44.3839 66.4626 44.7063 67.1816C45.0287 67.9006 45.7433 68.3633 46.5312 68.3633V66.3633ZM51.8438 66.3633V69H55.8438V66.3633H51.8438ZM53.8438 67H42.1719V71H53.8438V67ZM44.1719 69V66.75H40.1719V69H44.1719ZM43.6345 68.1141L49.154 62.1962L46.2288 59.4679L40.7093 65.3859L43.6345 68.1141ZM49.1789 62.1689C49.7684 61.513 50.2679 60.8982 50.6552 60.3315L47.3526 58.0747C47.0992 58.4455 46.7238 58.9167 46.2039 59.4951L49.1789 62.1689ZM50.6638 60.3188C51.0369 59.7638 51.3548 59.1964 51.568 58.628L47.8227 57.2235C47.7545 57.4052 47.6116 57.6894 47.344 58.0875L50.6638 60.3188ZM51.56 58.6488C51.7809 58.0792 51.918 57.47 51.918 56.8359H47.918C47.918 56.8894 47.9066 57.0067 47.8306 57.2027L51.56 58.6488ZM51.918 56.8359C51.918 56.1043 51.7966 55.3583 51.4715 54.6638L47.8488 56.3596C47.8675 56.3995 47.918 56.5363 47.918 56.8359H51.918ZM51.4783 54.6784C51.1483 53.9583 50.6304 53.3546 49.9333 52.9331L47.8636 56.356C47.863 56.3556 47.8592 56.3532 47.8536 56.3486C47.848 56.3439 47.8427 56.3387 47.8382 56.3336C47.8337 56.3285 47.8319 56.3255 47.8322 56.3261C47.8327 56.3268 47.8363 56.3325 47.842 56.345L51.4783 54.6784ZM49.9511 52.944C49.2352 52.5008 48.4418 52.3398 47.6797 52.3398V56.3398C47.7833 56.3398 47.8406 56.3508 47.8626 56.3563C47.8823 56.3612 47.8717 56.3611 47.8457 56.3451L49.9511 52.944ZM47.6797 52.3398C46.8278 52.3398 45.9835 52.5513 45.2343 53.0507L47.4532 56.3789C47.454 56.3783 47.5003 56.3398 47.6797 56.3398V52.3398ZM45.2182 53.0616C44.5114 53.5428 43.9998 54.199 43.6684 54.9545L47.3316 56.5611C47.3908 56.426 47.4417 56.3868 47.4693 56.368L45.2182 53.0616ZM43.6567 54.9817C43.3502 55.7096 43.2188 56.4837 43.2188 57.2695H47.2188C47.2188 56.9303 47.2748 56.6966 47.3433 56.5339L43.6567 54.9817ZM45.2188 55.2695H41.832V59.2695H45.2188V55.2695ZM43.832 57.2695C43.832 56.5873 43.9905 56.0034 44.2931 55.4762L40.8241 53.4847C40.158 54.6451 39.832 55.9205 39.832 57.2695H43.832ZM44.297 55.4693C44.5964 54.9431 45.0146 54.5221 45.595 54.1934L43.6237 50.7129C42.4385 51.3842 41.4896 52.3147 40.8201 53.4916L44.297 55.4693ZM45.6066 54.1868C46.1333 53.8838 46.8227 53.6914 47.75 53.6914V49.6914C46.2555 49.6914 44.8511 50.0068 43.6121 50.7195L45.6066 54.1868ZM47.75 53.6914C48.7377 53.6914 49.4327 53.8541 49.9136 54.0831L51.6333 50.4716C50.4736 49.9194 49.1529 49.6914 47.75 49.6914V53.6914ZM49.9342 54.0928C50.423 54.3187 50.7213 54.6054 50.9189 54.9457L54.378 52.9371C53.7319 51.8243 52.7802 51.0016 51.6126 50.4619L49.9342 54.0928ZM50.9318 54.9677C51.1429 55.3208 51.293 55.8104 51.293 56.5195H55.293C55.293 55.2287 55.0133 53.9995 54.3651 52.9152L50.9318 54.9677ZM51.293 56.5195C51.293 56.8649 51.2385 57.2022 51.1261 57.5394L54.9208 58.8043C55.1678 58.0634 55.293 57.2992 55.293 56.5195H51.293ZM51.1289 57.5311C51.0057 57.8952 50.8208 58.2837 50.5596 58.6967L53.9404 60.8345C54.3511 60.1851 54.6818 59.511 54.918 58.8127L51.1289 57.5311ZM50.5554 58.7034C50.2902 59.1264 49.9563 59.5745 49.5455 60.047L52.5639 62.6717C53.0905 62.0661 53.5535 61.4517 53.9446 60.8279L50.5554 58.7034ZM49.5455 60.047C49.1076 60.5505 48.6171 61.0784 48.0723 61.6306L50.9199 64.4397C51.5157 63.8357 52.0642 63.2463 52.5639 62.6717L49.5455 60.047ZM48.0027 61.7048L45.0379 65.0329L48.0246 67.6936L50.9895 64.3655L48.0027 61.7048ZM46.5312 68.3633H53.8438V64.3633H46.5312V68.3633Z" fill="#81A5B0"/>
</g>
<defs>
<filter id="filter0_d_748_5738" x="0" y="0" width="98" height="98" filterUnits="userSpaceOnUse" color-interpolation-filters="sRGB">
<feFlood flood-opacity="0" result="BackgroundImageFix"/>
<feColorMatrix in="SourceAlpha" type="matrix" values="0 0 0 0 0 0 0 0 0 0 0 0 0 0 0 0 0 0 127 0" result="hardAlpha"/>
<feOffset dx="2" dy="2"/>
<feColorMatrix type="matrix" values="0 0 0 0 0.637788 0 0 0 0 0.545996 0 0 0 0 0.47948 0 0 0 0.2 0"/>
<feBlend mode="normal" in2="BackgroundImageFix" result="effect1_dropShadow_748_5738"/>
<feBlend mode="normal" in="SourceGraphic" in2="effect1_dropShadow_748_5738" result="shape"/>
</filter>
</defs>
</svg>
